<mxfile host="app.diagrams.net" modified="2024-06-25T02:55:31.887Z" agent="Mozilla/5.0 (Windows NT 10.0; Win64; x64) AppleWebKit/537.36 (KHTML, like Gecko) Chrome/126.0.0.0 Safari/537.36 Edg/126.0.0.0" etag="5ff3lRES-5P8PGRgVCpV" version="24.6.0" type="github">
  <diagram name="第 1 页" id="6-DvCEu9I3ejnAYmDn9d">
    <mxGraphModel dx="2392" dy="1041" grid="0" gridSize="10" guides="1" tooltips="1" connect="1" arrows="1" fold="1" page="1" pageScale="1" pageWidth="827" pageHeight="1169" math="0" shadow="0">
      <root>
        <mxCell id="0" />
        <mxCell id="1" parent="0" />
        <mxCell id="ACkTagMUBhwrKETom3U7-1" value="" style="rounded=0;whiteSpace=wrap;html=1;sketch=1;hachureGap=4;jiggle=2;curveFitting=1;fontFamily=Architects Daughter;fontSource=https%3A%2F%2Ffonts.googleapis.com%2Fcss%3Ffamily%3DArchitects%2BDaughter;" parent="1" vertex="1">
          <mxGeometry x="-33" y="372" width="386" height="298" as="geometry" />
        </mxCell>
        <mxCell id="y0GIKHgXNxl76aVskyiR-26" value="" style="rounded=0;whiteSpace=wrap;html=1;sketch=1;hachureGap=4;jiggle=2;curveFitting=1;fontFamily=Architects Daughter;fontSource=https%3A%2F%2Ffonts.googleapis.com%2Fcss%3Ffamily%3DArchitects%2BDaughter;" parent="1" vertex="1">
          <mxGeometry x="-525" y="404" width="455" height="150" as="geometry" />
        </mxCell>
        <mxCell id="y0GIKHgXNxl76aVskyiR-1" value="营销中台（100个系统）&lt;br&gt;DF=&amp;gt;单点登陆" style="rounded=0;whiteSpace=wrap;html=1;sketch=1;hachureGap=4;jiggle=2;curveFitting=1;fontFamily=Architects Daughter;fontSource=https%3A%2F%2Ffonts.googleapis.com%2Fcss%3Ffamily%3DArchitects%2BDaughter;" parent="1" vertex="1">
          <mxGeometry x="-525" y="265" width="884" height="89" as="geometry" />
        </mxCell>
        <mxCell id="y0GIKHgXNxl76aVskyiR-2" value="树根&lt;br&gt;sh-root" style="rounded=0;whiteSpace=wrap;html=1;sketch=1;hachureGap=4;jiggle=2;curveFitting=1;fontFamily=Architects Daughter;fontSource=https%3A%2F%2Ffonts.googleapis.com%2Fcss%3Ffamily%3DArchitects%2BDaughter;" parent="1" vertex="1">
          <mxGeometry x="-478" y="423" width="120" height="88" as="geometry" />
        </mxCell>
        <mxCell id="y0GIKHgXNxl76aVskyiR-3" value="AIO" style="rounded=0;whiteSpace=wrap;html=1;sketch=1;hachureGap=4;jiggle=2;curveFitting=1;fontFamily=Architects Daughter;fontSource=https%3A%2F%2Ffonts.googleapis.com%2Fcss%3Ffamily%3DArchitects%2BDaughter;" parent="1" vertex="1">
          <mxGeometry x="-231" y="425" width="120" height="88" as="geometry" />
        </mxCell>
        <mxCell id="y0GIKHgXNxl76aVskyiR-7" value="" style="shape=flexArrow;endArrow=classic;html=1;rounded=0;sketch=1;hachureGap=4;jiggle=2;curveFitting=1;fontFamily=Architects Daughter;fontSource=https%3A%2F%2Ffonts.googleapis.com%2Fcss%3Ffamily%3DArchitects%2BDaughter;" parent="1" edge="1">
          <mxGeometry width="50" height="50" relative="1" as="geometry">
            <mxPoint x="-277" y="169" as="sourcePoint" />
            <mxPoint x="-273" y="265" as="targetPoint" />
          </mxGeometry>
        </mxCell>
        <mxCell id="y0GIKHgXNxl76aVskyiR-8" value="Token校验" style="rounded=0;whiteSpace=wrap;html=1;sketch=1;hachureGap=4;jiggle=2;curveFitting=1;fontFamily=Architects Daughter;fontSource=https%3A%2F%2Ffonts.googleapis.com%2Fcss%3Ffamily%3DArchitects%2BDaughter;" parent="1" vertex="1">
          <mxGeometry x="-521" y="632.5" width="121" height="17" as="geometry" />
        </mxCell>
        <mxCell id="y0GIKHgXNxl76aVskyiR-9" value="Token校验" style="rounded=0;whiteSpace=wrap;html=1;sketch=1;hachureGap=4;jiggle=2;curveFitting=1;fontFamily=Architects Daughter;fontSource=https%3A%2F%2Ffonts.googleapis.com%2Fcss%3Ffamily%3DArchitects%2BDaughter;" parent="1" vertex="1">
          <mxGeometry x="-231" y="423" width="121" height="17" as="geometry" />
        </mxCell>
        <mxCell id="y0GIKHgXNxl76aVskyiR-10" value="DD平台" style="rounded=0;whiteSpace=wrap;html=1;sketch=1;hachureGap=4;jiggle=2;curveFitting=1;fontFamily=Architects Daughter;fontSource=https%3A%2F%2Ffonts.googleapis.com%2Fcss%3Ffamily%3DArchitects%2BDaughter;" parent="1" vertex="1">
          <mxGeometry x="604" y="327" width="323" height="108" as="geometry" />
        </mxCell>
        <mxCell id="y0GIKHgXNxl76aVskyiR-11" value="树根" style="rounded=0;whiteSpace=wrap;html=1;sketch=1;hachureGap=4;jiggle=2;curveFitting=1;fontFamily=Architects Daughter;fontSource=https%3A%2F%2Ffonts.googleapis.com%2Fcss%3Ffamily%3DArchitects%2BDaughter;" parent="1" vertex="1">
          <mxGeometry x="609" y="527" width="120" height="88" as="geometry" />
        </mxCell>
        <mxCell id="y0GIKHgXNxl76aVskyiR-12" value="AIO" style="rounded=0;whiteSpace=wrap;html=1;sketch=1;hachureGap=4;jiggle=2;curveFitting=1;fontFamily=Architects Daughter;fontSource=https%3A%2F%2Ffonts.googleapis.com%2Fcss%3Ffamily%3DArchitects%2BDaughter;" parent="1" vertex="1">
          <mxGeometry x="819" y="529" width="120" height="88" as="geometry" />
        </mxCell>
        <mxCell id="y0GIKHgXNxl76aVskyiR-13" value="" style="shape=flexArrow;endArrow=classic;html=1;rounded=0;sketch=1;hachureGap=4;jiggle=2;curveFitting=1;fontFamily=Architects Daughter;fontSource=https%3A%2F%2Ffonts.googleapis.com%2Fcss%3Ffamily%3DArchitects%2BDaughter;" parent="1" edge="1">
          <mxGeometry width="50" height="50" relative="1" as="geometry">
            <mxPoint x="763.5" y="216" as="sourcePoint" />
            <mxPoint x="767.5" y="312" as="targetPoint" />
          </mxGeometry>
        </mxCell>
        <mxCell id="y0GIKHgXNxl76aVskyiR-15" value="网关（Token检验）=&amp;gt;营销中台" style="rounded=0;whiteSpace=wrap;html=1;sketch=1;hachureGap=4;jiggle=2;curveFitting=1;fontFamily=Architects Daughter;fontSource=https%3A%2F%2Ffonts.googleapis.com%2Fcss%3Ffamily%3DArchitects%2BDaughter;" parent="1" vertex="1">
          <mxGeometry x="48" y="383" width="272" height="32" as="geometry" />
        </mxCell>
        <mxCell id="y0GIKHgXNxl76aVskyiR-16" value="" style="shape=flexArrow;endArrow=classic;html=1;rounded=0;sketch=1;hachureGap=4;jiggle=2;curveFitting=1;fontFamily=Architects Daughter;fontSource=https%3A%2F%2Ffonts.googleapis.com%2Fcss%3Ffamily%3DArchitects%2BDaughter;" parent="1" edge="1">
          <mxGeometry width="50" height="50" relative="1" as="geometry">
            <mxPoint x="-236" y="475" as="sourcePoint" />
            <mxPoint x="-346" y="475" as="targetPoint" />
          </mxGeometry>
        </mxCell>
        <mxCell id="y0GIKHgXNxl76aVskyiR-17" value="/**" style="text;html=1;align=center;verticalAlign=middle;whiteSpace=wrap;rounded=0;fontFamily=Architects Daughter;fontSource=https%3A%2F%2Ffonts.googleapis.com%2Fcss%3Ffamily%3DArchitects%2BDaughter;" parent="1" vertex="1">
          <mxGeometry x="-377" y="624" width="60" height="30" as="geometry" />
        </mxCell>
        <mxCell id="y0GIKHgXNxl76aVskyiR-18" value="排除 /public/**" style="text;html=1;align=center;verticalAlign=middle;whiteSpace=wrap;rounded=0;fontFamily=Architects Daughter;fontSource=https%3A%2F%2Ffonts.googleapis.com%2Fcss%3Ffamily%3DArchitects%2BDaughter;" parent="1" vertex="1">
          <mxGeometry x="-377" y="654" width="108" height="30" as="geometry" />
        </mxCell>
        <mxCell id="y0GIKHgXNxl76aVskyiR-19" value="Token校验" style="rounded=0;whiteSpace=wrap;html=1;sketch=1;hachureGap=4;jiggle=2;curveFitting=1;fontFamily=Architects Daughter;fontSource=https%3A%2F%2Ffonts.googleapis.com%2Fcss%3Ffamily%3DArchitects%2BDaughter;" parent="1" vertex="1">
          <mxGeometry x="-521" y="662.5" width="121" height="17" as="geometry" />
        </mxCell>
        <mxCell id="y0GIKHgXNxl76aVskyiR-20" value="Token校验" style="rounded=0;whiteSpace=wrap;html=1;sketch=1;hachureGap=4;jiggle=2;curveFitting=1;fontFamily=Architects Daughter;fontSource=https%3A%2F%2Ffonts.googleapis.com%2Fcss%3Ffamily%3DArchitects%2BDaughter;" parent="1" vertex="1">
          <mxGeometry x="-479" y="425" width="121" height="17" as="geometry" />
        </mxCell>
        <mxCell id="y0GIKHgXNxl76aVskyiR-21" value="&lt;font style=&quot;font-size: 48px;&quot;&gt;期望（暂不做）&lt;/font&gt;" style="text;html=1;align=center;verticalAlign=middle;whiteSpace=wrap;rounded=0;fontFamily=Architects Daughter;fontSource=https%3A%2F%2Ffonts.googleapis.com%2Fcss%3Ffamily%3DArchitects%2BDaughter;" parent="1" vertex="1">
          <mxGeometry x="604" y="86" width="400" height="30" as="geometry" />
        </mxCell>
        <mxCell id="y0GIKHgXNxl76aVskyiR-24" value="前端节点：4&lt;br&gt;后端节点：4" style="rounded=0;whiteSpace=wrap;html=1;sketch=1;hachureGap=4;jiggle=2;curveFitting=1;fontFamily=Architects Daughter;fontSource=https%3A%2F%2Ffonts.googleapis.com%2Fcss%3Ffamily%3DArchitects%2BDaughter;" parent="1" vertex="1">
          <mxGeometry x="807" y="141" width="120" height="60" as="geometry" />
        </mxCell>
        <mxCell id="y0GIKHgXNxl76aVskyiR-25" value="8*4=32" style="rounded=0;whiteSpace=wrap;html=1;sketch=1;hachureGap=4;jiggle=2;curveFitting=1;fontFamily=Architects Daughter;fontSource=https%3A%2F%2Ffonts.googleapis.com%2Fcss%3Ffamily%3DArchitects%2BDaughter;" parent="1" vertex="1">
          <mxGeometry x="807" y="223" width="120" height="60" as="geometry" />
        </mxCell>
        <mxCell id="y0GIKHgXNxl76aVskyiR-28" value="http://sh-root/**" style="text;html=1;align=center;verticalAlign=middle;whiteSpace=wrap;rounded=0;fontFamily=Architects Daughter;fontSource=https%3A%2F%2Ffonts.googleapis.com%2Fcss%3Ffamily%3DArchitects%2BDaughter;" parent="1" vertex="1">
          <mxGeometry x="-475" y="522" width="170" height="30" as="geometry" />
        </mxCell>
        <mxCell id="1DmX28pb39PpEtoRShT1-1" value="网关（Token检验） =&amp;gt;DF" style="rounded=0;whiteSpace=wrap;html=1;sketch=1;hachureGap=4;jiggle=2;curveFitting=1;fontFamily=Architects Daughter;fontSource=https%3A%2F%2Ffonts.googleapis.com%2Fcss%3Ffamily%3DArchitects%2BDaughter;" parent="1" vertex="1">
          <mxGeometry x="604" y="463" width="335" height="32" as="geometry" />
        </mxCell>
        <mxCell id="1DmX28pb39PpEtoRShT1-2" value="crm" style="rounded=0;whiteSpace=wrap;html=1;sketch=1;hachureGap=4;jiggle=2;curveFitting=1;fontFamily=Architects Daughter;fontSource=https%3A%2F%2Ffonts.googleapis.com%2Fcss%3Ffamily%3DArchitects%2BDaughter;" parent="1" vertex="1">
          <mxGeometry x="60" y="464" width="120" height="88" as="geometry" />
        </mxCell>
        <mxCell id="1DmX28pb39PpEtoRShT1-3" value="会员中心" style="rounded=0;whiteSpace=wrap;html=1;sketch=1;hachureGap=4;jiggle=2;curveFitting=1;fontFamily=Architects Daughter;fontSource=https%3A%2F%2Ffonts.googleapis.com%2Fcss%3Ffamily%3DArchitects%2BDaughter;" parent="1" vertex="1">
          <mxGeometry x="192" y="464" width="120" height="88" as="geometry" />
        </mxCell>
        <mxCell id="1DmX28pb39PpEtoRShT1-6" value="1、谁提供接口给到营销中台&lt;div&gt;&lt;br/&gt;&lt;/div&gt;" style="rounded=0;whiteSpace=wrap;html=1;sketch=1;hachureGap=4;jiggle=2;curveFitting=1;fontFamily=Architects Daughter;fontSource=https%3A%2F%2Ffonts.googleapis.com%2Fcss%3Ffamily%3DArchitects%2BDaughter;" parent="1" vertex="1">
          <mxGeometry x="57" y="570" width="275" height="60" as="geometry" />
        </mxCell>
        <mxCell id="ACkTagMUBhwrKETom3U7-2" value="Nacos" style="text;html=1;align=center;verticalAlign=middle;whiteSpace=wrap;rounded=0;fontFamily=Architects Daughter;fontSource=https%3A%2F%2Ffonts.googleapis.com%2Fcss%3Ffamily%3DArchitects%2BDaughter;fontStyle=1" parent="1" vertex="1">
          <mxGeometry x="293" y="636" width="60" height="30" as="geometry" />
        </mxCell>
        <mxCell id="UTh44MC_RKWqZSthq1NF-1" value="" style="rounded=0;whiteSpace=wrap;html=1;sketch=1;hachureGap=4;jiggle=2;curveFitting=1;fontFamily=Architects Daughter;fontSource=https%3A%2F%2Ffonts.googleapis.com%2Fcss%3Ffamily%3DArchitects%2BDaughter;" vertex="1" parent="1">
          <mxGeometry x="-84" y="1323" width="386" height="298" as="geometry" />
        </mxCell>
        <mxCell id="UTh44MC_RKWqZSthq1NF-2" value="" style="rounded=0;whiteSpace=wrap;html=1;sketch=1;hachureGap=4;jiggle=2;curveFitting=1;fontFamily=Architects Daughter;fontSource=https%3A%2F%2Ffonts.googleapis.com%2Fcss%3Ffamily%3DArchitects%2BDaughter;" vertex="1" parent="1">
          <mxGeometry x="-576" y="1355" width="455" height="150" as="geometry" />
        </mxCell>
        <mxCell id="UTh44MC_RKWqZSthq1NF-3" value="营销中台（100个系统）&lt;br&gt;DF=&amp;gt;单点登陆" style="rounded=0;whiteSpace=wrap;html=1;sketch=1;hachureGap=4;jiggle=2;curveFitting=1;fontFamily=Architects Daughter;fontSource=https%3A%2F%2Ffonts.googleapis.com%2Fcss%3Ffamily%3DArchitects%2BDaughter;" vertex="1" parent="1">
          <mxGeometry x="-576" y="1216" width="884" height="89" as="geometry" />
        </mxCell>
        <mxCell id="UTh44MC_RKWqZSthq1NF-4" value="树根&lt;br&gt;sh-root" style="rounded=0;whiteSpace=wrap;html=1;sketch=1;hachureGap=4;jiggle=2;curveFitting=1;fontFamily=Architects Daughter;fontSource=https%3A%2F%2Ffonts.googleapis.com%2Fcss%3Ffamily%3DArchitects%2BDaughter;" vertex="1" parent="1">
          <mxGeometry x="-529" y="1374" width="120" height="88" as="geometry" />
        </mxCell>
        <mxCell id="UTh44MC_RKWqZSthq1NF-5" value="AIO" style="rounded=0;whiteSpace=wrap;html=1;sketch=1;hachureGap=4;jiggle=2;curveFitting=1;fontFamily=Architects Daughter;fontSource=https%3A%2F%2Ffonts.googleapis.com%2Fcss%3Ffamily%3DArchitects%2BDaughter;" vertex="1" parent="1">
          <mxGeometry x="-282" y="1376" width="120" height="88" as="geometry" />
        </mxCell>
        <mxCell id="UTh44MC_RKWqZSthq1NF-6" value="" style="shape=flexArrow;endArrow=classic;html=1;rounded=0;sketch=1;hachureGap=4;jiggle=2;curveFitting=1;fontFamily=Architects Daughter;fontSource=https%3A%2F%2Ffonts.googleapis.com%2Fcss%3Ffamily%3DArchitects%2BDaughter;" edge="1" parent="1">
          <mxGeometry width="50" height="50" relative="1" as="geometry">
            <mxPoint x="-328" y="1120" as="sourcePoint" />
            <mxPoint x="-324" y="1216" as="targetPoint" />
          </mxGeometry>
        </mxCell>
        <mxCell id="UTh44MC_RKWqZSthq1NF-7" value="Token校验" style="rounded=0;whiteSpace=wrap;html=1;sketch=1;hachureGap=4;jiggle=2;curveFitting=1;fontFamily=Architects Daughter;fontSource=https%3A%2F%2Ffonts.googleapis.com%2Fcss%3Ffamily%3DArchitects%2BDaughter;" vertex="1" parent="1">
          <mxGeometry x="-572" y="1583.5" width="121" height="17" as="geometry" />
        </mxCell>
        <mxCell id="UTh44MC_RKWqZSthq1NF-8" value="Token校验" style="rounded=0;whiteSpace=wrap;html=1;sketch=1;hachureGap=4;jiggle=2;curveFitting=1;fontFamily=Architects Daughter;fontSource=https%3A%2F%2Ffonts.googleapis.com%2Fcss%3Ffamily%3DArchitects%2BDaughter;" vertex="1" parent="1">
          <mxGeometry x="-282" y="1374" width="121" height="17" as="geometry" />
        </mxCell>
        <mxCell id="UTh44MC_RKWqZSthq1NF-9" value="网关（Token检验）=&amp;gt;营销中台" style="rounded=0;whiteSpace=wrap;html=1;sketch=1;hachureGap=4;jiggle=2;curveFitting=1;fontFamily=Architects Daughter;fontSource=https%3A%2F%2Ffonts.googleapis.com%2Fcss%3Ffamily%3DArchitects%2BDaughter;" vertex="1" parent="1">
          <mxGeometry x="-3" y="1334" width="272" height="32" as="geometry" />
        </mxCell>
        <mxCell id="UTh44MC_RKWqZSthq1NF-10" value="" style="shape=flexArrow;endArrow=classic;html=1;rounded=0;sketch=1;hachureGap=4;jiggle=2;curveFitting=1;fontFamily=Architects Daughter;fontSource=https%3A%2F%2Ffonts.googleapis.com%2Fcss%3Ffamily%3DArchitects%2BDaughter;" edge="1" parent="1">
          <mxGeometry width="50" height="50" relative="1" as="geometry">
            <mxPoint x="-287" y="1426" as="sourcePoint" />
            <mxPoint x="-397" y="1426" as="targetPoint" />
          </mxGeometry>
        </mxCell>
        <mxCell id="UTh44MC_RKWqZSthq1NF-11" value="/**" style="text;html=1;align=center;verticalAlign=middle;whiteSpace=wrap;rounded=0;fontFamily=Architects Daughter;fontSource=https%3A%2F%2Ffonts.googleapis.com%2Fcss%3Ffamily%3DArchitects%2BDaughter;" vertex="1" parent="1">
          <mxGeometry x="-428" y="1575" width="60" height="30" as="geometry" />
        </mxCell>
        <mxCell id="UTh44MC_RKWqZSthq1NF-12" value="排除 /public/**" style="text;html=1;align=center;verticalAlign=middle;whiteSpace=wrap;rounded=0;fontFamily=Architects Daughter;fontSource=https%3A%2F%2Ffonts.googleapis.com%2Fcss%3Ffamily%3DArchitects%2BDaughter;" vertex="1" parent="1">
          <mxGeometry x="-428" y="1605" width="108" height="30" as="geometry" />
        </mxCell>
        <mxCell id="UTh44MC_RKWqZSthq1NF-13" value="Token校验" style="rounded=0;whiteSpace=wrap;html=1;sketch=1;hachureGap=4;jiggle=2;curveFitting=1;fontFamily=Architects Daughter;fontSource=https%3A%2F%2Ffonts.googleapis.com%2Fcss%3Ffamily%3DArchitects%2BDaughter;" vertex="1" parent="1">
          <mxGeometry x="-572" y="1613.5" width="121" height="17" as="geometry" />
        </mxCell>
        <mxCell id="UTh44MC_RKWqZSthq1NF-14" value="Token校验" style="rounded=0;whiteSpace=wrap;html=1;sketch=1;hachureGap=4;jiggle=2;curveFitting=1;fontFamily=Architects Daughter;fontSource=https%3A%2F%2Ffonts.googleapis.com%2Fcss%3Ffamily%3DArchitects%2BDaughter;" vertex="1" parent="1">
          <mxGeometry x="-530" y="1376" width="121" height="17" as="geometry" />
        </mxCell>
        <mxCell id="UTh44MC_RKWqZSthq1NF-15" value="http://sh-root/**" style="text;html=1;align=center;verticalAlign=middle;whiteSpace=wrap;rounded=0;fontFamily=Architects Daughter;fontSource=https%3A%2F%2Ffonts.googleapis.com%2Fcss%3Ffamily%3DArchitects%2BDaughter;" vertex="1" parent="1">
          <mxGeometry x="-526" y="1473" width="170" height="30" as="geometry" />
        </mxCell>
        <mxCell id="UTh44MC_RKWqZSthq1NF-16" value="crm" style="rounded=0;whiteSpace=wrap;html=1;sketch=1;hachureGap=4;jiggle=2;curveFitting=1;fontFamily=Architects Daughter;fontSource=https%3A%2F%2Ffonts.googleapis.com%2Fcss%3Ffamily%3DArchitects%2BDaughter;" vertex="1" parent="1">
          <mxGeometry x="9" y="1415" width="120" height="88" as="geometry" />
        </mxCell>
        <mxCell id="UTh44MC_RKWqZSthq1NF-17" value="会员中心" style="rounded=0;whiteSpace=wrap;html=1;sketch=1;hachureGap=4;jiggle=2;curveFitting=1;fontFamily=Architects Daughter;fontSource=https%3A%2F%2Ffonts.googleapis.com%2Fcss%3Ffamily%3DArchitects%2BDaughter;" vertex="1" parent="1">
          <mxGeometry x="141" y="1415" width="120" height="88" as="geometry" />
        </mxCell>
        <mxCell id="UTh44MC_RKWqZSthq1NF-18" value="1、谁提供接口给到营销中台&lt;div&gt;&lt;br/&gt;&lt;/div&gt;" style="rounded=0;whiteSpace=wrap;html=1;sketch=1;hachureGap=4;jiggle=2;curveFitting=1;fontFamily=Architects Daughter;fontSource=https%3A%2F%2Ffonts.googleapis.com%2Fcss%3Ffamily%3DArchitects%2BDaughter;" vertex="1" parent="1">
          <mxGeometry x="6" y="1521" width="275" height="60" as="geometry" />
        </mxCell>
        <mxCell id="UTh44MC_RKWqZSthq1NF-19" value="Nacos" style="text;html=1;align=center;verticalAlign=middle;whiteSpace=wrap;rounded=0;fontFamily=Architects Daughter;fontSource=https%3A%2F%2Ffonts.googleapis.com%2Fcss%3Ffamily%3DArchitects%2BDaughter;fontStyle=1" vertex="1" parent="1">
          <mxGeometry x="242" y="1587" width="60" height="30" as="geometry" />
        </mxCell>
      </root>
    </mxGraphModel>
  </diagram>
</mxfile>
